<svg width="14" height="14" viewBox="0 0 14 14" fill="none" xmlns="http://www.w3.org/2000/svg">
<path d="M12.6477 13.7809L8.19318 9.32006C7.79545 9.63869 7.33807 9.89094 6.82102 10.0768C6.30398 10.2627 5.75379 10.3556 5.17045 10.3556C3.72538 10.3556 2.5025 9.8543 1.50182 8.85166C0.501136 7.84903 0.000530303 6.62441 0 5.17781C0 3.73068 0.500606 2.50606 1.50182 1.50395C2.50303 0.501849 3.72591 0.000531057 5.17045 0C6.61553 0 7.83841 0.501318 8.83909 1.50395C9.83977 2.50659 10.3404 3.73121 10.3409 5.17781C10.3409 5.76197 10.2481 6.31294 10.0625 6.83072C9.87689 7.34851 9.625 7.80654 9.30682 8.20484L13.7812 12.6856C13.9271 12.8317 14 13.0109 14 13.2233C14 13.4358 13.9205 13.6216 13.7614 13.7809C13.6155 13.927 13.4299 14 13.2045 14C12.9792 14 12.7936 13.927 12.6477 13.7809ZM5.17045 8.76245C6.16477 8.76245 7.01008 8.41381 7.70636 7.71653C8.40265 7.01925 8.75053 6.17301 8.75 5.17781C8.75 4.18208 8.40186 3.33557 7.70557 2.63829C7.00928 1.94101 6.16424 1.59264 5.17045 1.59317C4.17614 1.59317 3.33083 1.94181 2.63455 2.63909C1.93826 3.33637 1.59038 4.18261 1.59091 5.17781C1.59091 6.17354 1.93905 7.02005 2.63534 7.71733C3.33163 8.4146 4.17667 8.76298 5.17045 8.76245Z" fill="#949494"/>
</svg>
