<svg width="23" height="24" viewBox="0 0 23 24" fill="none" xmlns="http://www.w3.org/2000/svg">
<path d="M3.75513 22.3839L4.44053 22.0375L3.75513 22.3839ZM19.2449 22.3839L19.9303 22.7303L19.2449 22.3839ZM1.07793 9.39717H21.9221V7.85077H1.07793V9.39717ZM21.4667 8.93789V9.61676H23V8.93789H21.4667ZM18.9919 21.7684H4.00813V23.3148H18.9919V21.7684ZM1.53333 9.61676V8.93789H0V9.61676H1.53333ZM4.44053 22.0375C2.52862 18.181 1.53328 13.9285 1.53333 9.61676H0C0 14.1694 1.05033 18.6586 3.06973 22.7303L4.44053 22.0375ZM4.00813 21.7684C4.19213 21.7684 4.35927 21.8736 4.44053 22.0375L3.06973 22.7303C3.15703 22.9059 3.29102 23.0536 3.45673 23.1568C3.62245 23.26 3.81336 23.3147 4.00813 23.3148V21.7684ZM18.5595 22.0375C18.5996 21.9566 18.6614 21.8885 18.7378 21.841C18.8141 21.7935 18.9021 21.7683 18.9919 21.7684V23.3148C19.3905 23.3148 19.7524 23.0891 19.9303 22.7303L18.5595 22.0375ZM21.4667 9.61676C21.4667 13.9281 20.47 18.1808 18.5595 22.0375L19.9303 22.7303C21.949 18.6587 23 14.169 23 9.61676H21.4667ZM21.9221 9.39717C21.8013 9.39717 21.6855 9.34879 21.6 9.26265C21.5146 9.17652 21.4667 9.0597 21.4667 8.93789H23C23 8.64957 22.8864 8.37305 22.6843 8.16918C22.4821 7.9653 22.208 7.85077 21.9221 7.85077V9.39717ZM1.07793 7.85077C0.792048 7.85077 0.517871 7.9653 0.315719 8.16918C0.113568 8.37305 0 8.64957 0 8.93789H1.53333C1.53333 9.0597 1.48535 9.17652 1.39995 9.26265C1.31455 9.34879 1.19871 9.39717 1.07793 9.39717V7.85077ZM6.02447 9.0214L10.6245 1.28936L9.30733 0.494507L4.70733 8.22654L6.02293 9.0214H6.02447ZM12.3755 1.28936L16.9755 9.0214L18.2911 8.22654L13.6911 0.494507L12.3755 1.28936V1.28936ZM7.66667 15.5828H15.3333V14.0364H7.66667V15.5828Z" fill="#181818"/>
</svg>
