<svg width="25" height="26" viewBox="0 0 25 26" fill="none" xmlns="http://www.w3.org/2000/svg">
<path fill-rule="evenodd" clip-rule="evenodd" d="M6.75563 19.8545C11.0337 19.2242 13.9794 19.2784 18.2631 19.8765C18.5734 19.9219 18.8568 20.0789 19.0612 20.3186C19.2656 20.5584 19.377 20.8646 19.375 21.1807C19.375 21.4833 19.2719 21.777 19.0856 22.0064C18.761 22.4065 18.4284 22.7999 18.0881 23.1864H19.7388C19.8425 23.0616 19.9469 22.9343 20.0525 22.8051C20.4232 22.3466 20.6255 21.7729 20.625 21.1813C20.625 19.9049 19.7012 18.805 18.4344 18.6285C14.0494 18.0164 10.9844 17.9578 6.575 18.6077C5.295 18.7962 4.375 19.9131 4.375 21.1983C4.375 21.7688 4.55938 22.3329 4.90875 22.7899C5.01188 22.9248 5.11375 23.0572 5.215 23.187H6.82562C6.50901 22.8047 6.2002 22.416 5.89938 22.0209C5.7206 21.7844 5.62416 21.4951 5.625 21.1977C5.625 20.5189 6.10875 19.9497 6.75563 19.8545ZM12.5 13.7315C12.9925 13.7315 13.4801 13.6336 13.9351 13.4436C14.39 13.2535 14.8034 12.9749 15.1517 12.6238C15.4999 12.2726 15.7761 11.8556 15.9645 11.3968C16.153 10.9379 16.25 10.4461 16.25 9.94949C16.25 9.45284 16.153 8.96104 15.9645 8.50219C15.7761 8.04334 15.4999 7.62642 15.1517 7.27523C14.8034 6.92404 14.39 6.64547 13.9351 6.4554C13.4801 6.26534 12.9925 6.16752 12.5 6.16752C11.5054 6.16752 10.5516 6.56598 9.84835 7.27523C9.14509 7.98449 8.75 8.94645 8.75 9.94949C8.75 10.9525 9.14509 11.9145 9.84835 12.6238C10.5516 13.333 11.5054 13.7315 12.5 13.7315ZM12.5 14.9921C13.8261 14.9921 15.0979 14.4609 16.0355 13.5152C16.9732 12.5695 17.5 11.2869 17.5 9.94949C17.5 8.6121 16.9732 7.32949 16.0355 6.38381C15.0979 5.43814 13.8261 4.90686 12.5 4.90686C11.1739 4.90686 9.90215 5.43814 8.96447 6.38381C8.02678 7.32949 7.5 8.6121 7.5 9.94949C7.5 11.2869 8.02678 12.5695 8.96447 13.5152C9.90215 14.4609 11.1739 14.9921 12.5 14.9921Z" fill="#181818"/>
<path fill-rule="evenodd" clip-rule="evenodd" d="M12.5 24.447C18.7131 24.447 23.75 19.3672 23.75 13.1011C23.75 6.83499 18.7131 1.75517 12.5 1.75517C6.28688 1.75517 1.25 6.83499 1.25 13.1011C1.25 19.3672 6.28688 24.447 12.5 24.447ZM12.5 25.7077C19.4037 25.7077 25 20.0637 25 13.1011C25 6.13847 19.4037 0.494507 12.5 0.494507C5.59625 0.494507 0 6.13847 0 13.1011C0 20.0637 5.59625 25.7077 12.5 25.7077Z" fill="#181818"/>
</svg>
