<svg width="21" height="21" viewBox="0 0 21 21" fill="none" xmlns="http://www.w3.org/2000/svg">
<path d="M19.8141 0.75H1.1847C0.936415 0.75 0.698297 0.84382 0.522732 1.01082C0.347166 1.17782 0.248535 1.40432 0.248535 1.6405C0.248535 1.87668 0.347166 2.10318 0.522732 2.27018C0.698297 2.43718 0.936415 2.531 1.1847 2.531H17.5591L0.526994 18.7323C0.440398 18.8146 0.371706 18.9124 0.324841 19.02C0.277976 19.1277 0.253854 19.243 0.253854 19.3595C0.253854 19.476 0.277976 19.5913 0.324841 19.699C0.371706 19.8066 0.440398 19.9044 0.526994 19.9867C0.613589 20.0691 0.716394 20.1345 0.829537 20.179C0.942679 20.2236 1.06394 20.2466 1.18641 20.2466C1.30887 20.2466 1.43014 20.2236 1.54328 20.179C1.65643 20.1345 1.75923 20.0691 1.84583 19.9867L18.8779 3.78388V19.3611C18.8779 19.5973 18.9765 19.8238 19.1521 19.9908C19.3277 20.1578 19.5658 20.2516 19.8141 20.2516C20.0624 20.2516 20.3005 20.1578 20.476 19.9908C20.6516 19.8238 20.7502 19.5973 20.7502 19.3611V1.63725C20.7493 1.40164 20.6503 1.17597 20.4748 1.00967C20.2994 0.843372 20.0618 0.749998 19.8141 0.75Z" fill="white"/>
</svg>
