<svg width="21" height="17" viewBox="0 0 21 17" fill="none" xmlns="http://www.w3.org/2000/svg">
<path d="M10.2406 16.9792C10.1441 16.9777 10.0496 16.9529 9.96601 16.9072C9.86187 16.8622 7.51394 15.5932 5.12815 13.5593C1.86188 10.7605 0.20508 7.97958 0.20508 5.27971C0.204221 4.16267 0.580365 3.07483 1.27822 2.17609C1.97608 1.27736 2.95883 0.615136 4.08203 0.286772C5.20523 -0.0415934 6.40962 -0.0187804 7.51816 0.351858C8.6267 0.722496 9.58093 1.42141 10.2406 2.34586C10.9002 1.42141 11.8544 0.722496 12.963 0.351858C14.0715 -0.0187804 15.2759 -0.0415934 16.3991 0.286772C17.5223 0.615136 18.5051 1.27736 19.2029 2.17609C19.9008 3.07483 20.2769 4.16267 20.276 5.27971C20.276 7.97958 18.6192 10.7605 15.353 13.5593C12.9672 15.5932 10.6193 16.8622 10.5151 16.9072C10.4315 16.9529 10.337 16.9777 10.2406 16.9792ZM5.69619 1.13991C4.54117 1.13991 3.43345 1.57607 2.61673 2.35243C1.8 3.1288 1.34117 4.18177 1.34117 5.27971C1.34117 10.4365 8.70684 14.9362 10.2406 15.8092C11.7743 14.9362 19.14 10.4365 19.14 5.27971C19.1422 4.32114 18.7944 3.39155 18.1559 2.64958C17.5174 1.90761 16.6279 1.39925 15.639 1.21126C14.6502 1.02327 13.6234 1.16729 12.7338 1.61876C11.8443 2.07023 11.1471 2.80115 10.7613 3.68679C10.7205 3.78657 10.649 3.87232 10.5561 3.93278C10.4631 3.99324 10.3532 4.02559 10.2406 4.02559C10.128 4.02559 10.018 3.99324 9.92506 3.93278C9.83214 3.87232 9.76061 3.78657 9.71986 3.68679C9.38882 2.93195 8.83 2.28721 8.1139 1.83394C7.39781 1.38067 6.55652 1.13917 5.69619 1.13991Z" fill="black"/>
</svg>
