<svg width="21" height="17" viewBox="0 0 21 17" fill="none" xmlns="http://www.w3.org/2000/svg">
<path d="M10.6762 16.9792C10.5789 16.9777 10.4836 16.9529 10.3992 16.9072C10.2942 16.8622 7.92543 15.5932 5.51848 13.5593C2.22325 10.7605 0.551759 7.97958 0.551759 5.27971C0.550893 4.16267 0.930372 3.07483 1.63442 2.17609C2.33846 1.27736 3.32993 0.615137 4.46309 0.286772C5.59624 -0.0415934 6.81131 -0.0187804 7.92969 0.351858C9.04806 0.722496 10.0107 1.42141 10.6762 2.34586C11.3417 1.42141 12.3044 0.722496 13.4228 0.351858C14.5411 -0.0187804 15.7562 -0.0415934 16.8894 0.286772C18.0225 0.615137 19.014 1.27736 19.718 2.17609C20.4221 3.07483 20.8016 4.16267 20.8007 5.27971C20.8007 7.97958 19.1292 10.7605 15.834 13.5593C13.427 15.5932 11.0583 16.8622 10.9532 16.9072C10.8689 16.9529 10.7736 16.9777 10.6762 16.9792ZM6.09156 1.13991C4.9263 1.13991 3.80876 1.57607 2.98479 2.35243C2.16083 3.1288 1.69793 4.18177 1.69793 5.27971C1.69793 10.4365 9.12891 14.9362 10.6762 15.8092C12.2236 14.9362 19.6545 10.4365 19.6545 5.27971C19.6568 4.32114 19.3059 3.39155 18.6617 2.64958C18.0176 1.90761 17.1202 1.39925 16.1226 1.21126C15.125 1.02327 14.0891 1.16729 13.1916 1.61876C12.2942 2.07023 11.5908 2.80115 11.2016 3.68679C11.1604 3.78657 11.0883 3.87232 10.9945 3.93278C10.9008 3.99324 10.7898 4.02559 10.6762 4.02559C10.5626 4.02559 10.4517 3.99324 10.3579 3.93278C10.2642 3.87232 10.192 3.78657 10.1509 3.68679C9.81693 2.93195 9.25315 2.28721 8.53071 1.83394C7.80826 1.38067 6.95952 1.13917 6.09156 1.13991Z" fill="#F38F8F"/>
</svg>
